<svg width="17" height="17" viewBox="0 0 17 17" fill="none" xmlns="http://www.w3.org/2000/svg">
<path d="M6.141 8.28856C6.69207 9.41517 7.60529 10.3242 8.73439 10.8702C8.817 10.9093 8.90838 10.9263 8.99954 10.9194C9.09069 10.9125 9.17848 10.882 9.25426 10.8308L10.9168 9.72223C10.9903 9.6732 11.0749 9.64328 11.1629 9.6352C11.2509 9.62711 11.3396 9.64111 11.4208 9.67593L14.5311 11.0089C14.6367 11.0538 14.7249 11.1318 14.7824 11.2312C14.8399 11.3305 14.8635 11.4459 14.8497 11.5599C14.7514 12.3291 14.3761 13.0361 13.794 13.5486C13.2119 14.061 12.463 14.3438 11.6875 14.3438C9.29226 14.3438 6.99513 13.3923 5.30144 11.6986C3.60775 10.0049 2.65625 7.70779 2.65625 5.31255C2.65629 4.53704 2.939 3.78814 3.45145 3.20606C3.9639 2.62399 4.67095 2.24866 5.4402 2.15035C5.55416 2.13656 5.66952 2.16018 5.76889 2.21765C5.86826 2.27512 5.94627 2.36333 5.99115 2.46898L7.32529 5.58197C7.35979 5.66249 7.37386 5.75029 7.36622 5.83756C7.35858 5.92483 7.32948 6.00886 7.2815 6.08216L6.17674 7.77018C6.12646 7.84612 6.09674 7.9338 6.09047 8.02466C6.08421 8.11552 6.10162 8.20645 6.141 8.28856V8.28856Z" stroke="#2563EB" stroke-linecap="round" stroke-linejoin="round"/>
</svg>
